<svg width="48" height="66" viewBox="0 0 48 66" fill="none" xmlns="http://www.w3.org/2000/svg">
<g id="door-icon">
<path id="door-frame-inside" d="M1 5.99243V60.0035C1 62.7649 3.23858 65 6 65H42C44.7614 65 47 62.7614 47 60V6C47 3.23858 44.7614 1 42 1H24H6C3.23858 1 1 3.23101 1 5.99243Z" fill="black" stroke="black" stroke-width="2"/>
<path id="door-frame" d="M1 5.99243V60.0035C1 62.7649 3.23858 65 6 65H42C44.7614 65 47 62.7614 47 60V6C47 3.23858 44.7614 1 42 1H24H6C3.23858 1 1 3.23101 1 5.99243Z" fill="white" stroke="black" stroke-width="2"/>
</g>
</svg>
